<svg width="256" height="256" viewBox="0 0 256 256" fill="none" xmlns="http://www.w3.org/2000/svg">
<rect width="256" height="256" rx="64" fill="url(#paint0_radial_427_1146)"/>
<g clip-path="url(#clip0_427_1146)">
<path d="M153.131 204H102.327C96.5105 204 91.0416 201.744 86.9287 197.647C82.8159 193.55 80.5505 188.103 80.5505 182.309V164.337C80.5505 160.716 83.4978 157.78 87.1332 157.78C90.7686 157.78 93.7159 160.716 93.7159 164.337V182.309C93.7159 187.039 97.5786 190.886 102.327 190.886H153.131C157.879 190.886 161.742 187.039 161.742 182.309V162.445C161.742 158.824 164.689 155.889 168.325 155.889C171.96 155.889 174.908 158.824 174.908 162.445V182.309C174.908 188.103 172.642 193.55 168.529 197.647C164.417 201.744 158.948 204 153.131 204Z" fill="white"/>
<path d="M86.6971 170.188C86.5593 170.188 86.4206 170.183 86.2811 170.175C79.5369 169.756 72.8585 167.789 66.9701 164.487C61.0817 161.186 55.9287 156.52 52.0695 150.994C48.2103 145.468 45.6106 139.033 44.5512 132.385C43.4919 125.738 43.9632 118.818 45.9152 112.373C47.8663 105.929 51.3156 99.9029 55.8884 94.9476C60.4611 89.9924 66.1995 86.0627 72.482 83.5833C78.7645 81.1049 85.6482 80.0549 92.388 80.5471C99.1287 81.0393 105.784 83.0789 111.636 86.4447C114.784 88.2553 115.863 92.2655 114.044 95.4014C112.825 97.5048 110.612 98.6807 108.337 98.6807C107.22 98.6807 106.089 98.3974 105.051 97.8012C100.909 95.418 96.1963 93.9746 91.4234 93.6258C86.6514 93.277 81.7776 94.0201 77.3295 95.7755C72.8813 97.531 68.8185 100.313 65.5798 103.822C62.342 107.331 59.9003 111.598 58.5179 116.16C57.1365 120.723 56.8021 125.623 57.5525 130.33C58.3029 135.037 60.1434 139.594 62.8757 143.506C65.6079 147.419 69.2565 150.722 73.4255 153.06C77.5954 155.397 82.3235 156.79 87.0982 157.086C90.7266 157.312 93.4851 160.424 93.2587 164.038C93.041 167.513 90.1438 170.188 86.6953 170.188H86.6971Z" fill="white"/>
<path d="M164.194 106.321C163.86 106.321 163.522 106.295 163.183 106.243C159.589 105.691 157.126 102.343 157.679 98.7637C158.296 94.7763 158.152 90.7592 157.248 86.8259C156.344 82.8927 154.722 79.213 152.425 75.8883C150.128 72.5644 147.257 69.7406 143.891 67.4955C140.525 65.2505 136.811 63.6803 132.85 62.8306C128.889 61.9808 124.856 61.8864 120.859 62.5517C116.863 63.217 113.08 64.6123 109.612 66.6991C106.144 68.7859 103.144 71.4733 100.694 74.6871C98.2448 77.9008 96.4517 81.5009 95.3642 85.3887C94.3891 88.8769 90.759 90.9174 87.257 89.9461C83.755 88.9748 81.7065 85.359 82.6816 81.8707C84.2167 76.3805 86.7488 71.2959 90.2096 66.7568C93.6694 62.2177 97.9069 58.4226 102.804 55.4755C107.702 52.5285 113.046 50.5579 118.689 49.6181C124.332 48.6783 130.03 48.8112 135.623 50.0115C141.217 51.2119 146.463 53.4289 151.217 56.5998C155.971 59.7707 160.026 63.759 163.27 68.4537C166.514 73.1484 168.806 78.3458 170.082 83.9007C171.358 89.4565 171.564 95.1295 170.692 100.761C170.191 104.001 167.387 106.32 164.195 106.32L164.194 106.321Z" fill="white"/>
<path d="M165.906 168.902C162.911 168.902 159.915 168.601 156.937 168C153.374 167.28 151.071 163.82 151.794 160.27C152.516 156.721 155.991 154.428 159.553 155.147C163.924 156.03 168.35 155.998 172.706 155.052C177.062 154.105 181.099 152.3 184.703 149.684C188.307 147.068 191.27 143.795 193.509 139.956C195.749 136.115 197.137 131.929 197.633 127.516C198.129 123.102 197.705 118.715 196.372 114.477C195.04 110.237 192.877 106.392 189.943 103.048C187.008 99.7044 183.471 97.0537 179.433 95.1723C175.394 93.2901 171.086 92.2847 166.628 92.1833C162.994 92.1011 160.114 89.0998 160.197 85.4796C160.278 81.9101 163.209 79.0714 166.775 79.0714C166.826 79.0714 166.877 79.0714 166.928 79.0731C173.223 79.2156 179.308 80.6354 185.013 83.294C190.717 85.9526 195.71 89.6943 199.855 94.4179C204 99.1405 207.055 104.57 208.938 110.557C210.819 116.543 211.419 122.74 210.718 128.974C210.018 135.207 208.059 141.118 204.896 146.543C201.733 151.967 197.547 156.59 192.457 160.283C187.367 163.977 181.666 166.527 175.513 167.865C172.33 168.556 169.12 168.903 165.909 168.903L165.906 168.902Z" fill="white"/>
</g>
<defs>
<radialGradient id="paint0_radial_427_1146" cx="0" cy="0" r="1" gradientUnits="userSpaceOnUse" gradientTransform="rotate(45) scale(362.039)">
<stop stop-color="#A027FF"/>
<stop offset="1" stop-color="#44009A"/>
</radialGradient>
<clipPath id="clip0_427_1146">
<rect width="167" height="155" fill="white" transform="translate(44 49)"/>
</clipPath>
</defs>
</svg>
