<?xml version="1.0" standalone="no"?>
<!DOCTYPE svg PUBLIC "-//W3C//DTD SVG 20010904//EN"
 "http://www.w3.org/TR/2001/REC-SVG-20010904/DTD/svg10.dtd">
<svg version="1.0" xmlns="http://www.w3.org/2000/svg"
 width="700.000000pt" height="700.000000pt" viewBox="0 0 700.000000 700.000000"
 preserveAspectRatio="xMidYMid meet">
<metadata>
Created by potrace 1.14, written by Peter Selinger 2001-2017
</metadata>
<g transform="translate(0.000000,700.000000) scale(0.100000,-0.100000)"
fill="#000000" stroke="none">
<path d="M746 6980 c-296 -62 -535 -254 -663 -530 -26 -57 -41 -102 -70 -215
-4 -16 -8 -1236 -9 -2710 -2 -2885 -5 -2752 48 -2900 41 -116 117 -241 207
-339 87 -93 253 -196 386 -240 147 -47 21 -45 2885 -43 l2685 2 84 24 c88 24
234 87 239 102 2 5 9 9 15 9 7 0 36 19 66 41 196 149 323 353 365 588 12 63
14 526 14 2726 1 1646 -3 2673 -9 2710 -53 332 -276 611 -582 729 -177 68 21
64 -2912 64 -2561 1 -2663 0 -2749 -18z"/>
</g>
</svg>
